<svg width="153" height="44" viewBox="0 0 153 44" fill="none" xmlns="http://www.w3.org/2000/svg">
<path d="M1.17632 10.4593L3.35073 16.2562C3.62402 15.8899 3.94483 15.5708 4.31317 15.299C4.6934 15.0271 5.00827 14.8912 5.25779 14.8912C5.41226 14.8912 5.50732 14.9621 5.54296 15.1039L13.296 37.7599L16.6467 35.7212L13.296 23.9678C14.7575 22.7623 16.2546 21.3441 17.7874 19.7131C19.3202 18.0704 20.5559 16.4985 21.4946 14.9976C22.4451 13.4966 22.9204 12.2853 22.9204 11.3634C22.9204 11.0443 22.8729 10.7902 22.7778 10.6011C22.5164 9.98657 22.1718 9.46656 21.7441 9.0411C21.3282 8.60381 20.847 8.25517 20.3004 7.99516C19.7657 7.72334 19.1657 7.52834 18.5003 7.41015C17.8349 7.28015 17.0923 7.21515 16.2724 7.21515C15.2743 7.21515 14.2347 7.29788 13.1534 7.46334C12.0721 7.61698 10.9493 7.83562 9.78484 8.11926C8.63229 8.39108 7.1708 8.76927 5.40038 9.25383C3.64184 9.73838 2.23382 10.1402 1.17632 10.4593ZM10.373 13.5085C11.181 13.3194 11.9177 13.1421 12.5831 12.9766C13.2603 12.7994 13.9435 12.6575 14.6327 12.5512C15.3337 12.433 15.9219 12.3739 16.3972 12.3739C16.8249 12.3739 17.1992 12.4093 17.52 12.4803C18.1735 12.6694 18.5003 13.0475 18.5003 13.6148C18.5003 14.6903 17.7577 16.0849 16.2724 17.7985C14.7872 19.5122 13.5514 20.8418 12.5652 21.7873L10.373 13.5085ZM0 9.73247C1.43772 9.25974 2.78633 8.82246 4.04583 8.42063C5.3172 8.0188 6.65393 7.64061 8.05601 7.28606C9.45809 6.91969 10.7948 6.63014 12.0662 6.41741C13.3494 6.20467 14.6089 6.09831 15.8447 6.09831C16.8071 6.09831 17.6923 6.17513 18.5003 6.32877C19.3083 6.47059 20.0687 6.71287 20.7817 7.0556C21.5065 7.39833 22.1481 7.85925 22.7065 8.43836C23.2769 9.00564 23.7403 9.67929 24.0967 10.4593C24.2393 10.7784 24.3106 11.1152 24.3106 11.4698C24.3106 12.7934 23.5799 14.4244 22.1184 16.3626C20.6688 18.3008 19.2073 19.9909 17.7339 21.4327C16.2724 22.8746 15.1793 23.9087 14.4545 24.5351L17.6626 35.7212L12.993 39.0717L4.81222 15.8308C4.78845 15.8308 4.67557 15.9431 4.47358 16.1676C4.27159 16.3922 4.00424 16.6876 3.67154 17.054C3.35073 17.4085 3.14874 17.6272 3.06556 17.7099C3.02991 17.7099 2.91109 17.4558 2.7091 16.9476C2.51899 16.4394 2.25758 15.7362 1.92489 14.838C1.60407 13.928 1.24167 12.9234 0.837682 11.8243C0.421812 10.7134 0.142584 10.0161 0 9.73247ZM11.5315 14.6608L12.993 19.8904C13.7297 19.1459 14.6446 18.1295 15.7377 16.8413C16.8309 15.553 17.3775 14.6194 17.3775 14.0403C17.3775 13.8157 17.2824 13.6857 17.0923 13.6503C16.5576 13.5321 16.0288 13.473 15.506 13.473C13.9376 13.473 12.6128 13.8689 11.5315 14.6608Z" fill="#007580"/>
<path d="M38.79 19.6068C37.7801 18.7086 36.479 18.2595 34.8868 18.2595C34.0075 18.2595 33.0807 18.4249 32.1064 18.7558C31.1321 19.0749 30.1459 19.5654 29.1478 20.2272C28.1616 20.8772 27.217 21.6868 26.3139 22.6559C25.7317 23.2823 25.2624 23.95 24.9059 24.6591C24.5494 25.3564 24.2821 26.0892 24.1039 26.8574C23.9256 27.6138 23.8365 28.376 23.8365 29.1442C23.8365 30.6452 24.1276 32.0398 24.7098 33.328C25.3039 34.6044 26.106 35.5853 27.116 36.2707C28.1616 36.9917 29.4508 37.3521 30.9836 37.3521C32.7183 37.3521 34.4412 36.8439 36.1522 35.8276C37.8751 34.7994 39.2653 33.3102 40.3228 31.3602C41.2971 29.6347 41.7843 27.8797 41.7843 26.0951C41.7843 24.8187 41.5288 23.6309 41.0179 22.5318C40.507 21.4209 39.7644 20.4459 38.79 19.6068ZM39.5208 18.7027C40.3644 19.1518 41.0476 19.7604 41.5704 20.5286C42.1051 21.285 42.4913 22.1418 42.7289 23.0991C42.9785 24.0446 43.1032 25.0314 43.1032 26.0596C43.1032 26.9106 43.0319 27.7319 42.8893 28.5238C42.7586 29.3156 42.5745 30.0424 42.3368 30.7043C42.0992 31.3661 41.82 31.9275 41.4991 32.3884C40.7506 33.4993 39.9485 34.4566 39.093 35.2603C38.2375 36.0639 37.3642 36.7139 36.473 37.2103C35.5819 37.6949 34.6967 38.0494 33.8174 38.274C32.95 38.5103 32.0886 38.6285 31.2331 38.6285C30.2231 38.6285 29.2607 38.469 28.3457 38.1499C27.4427 37.8426 26.6704 37.4349 26.0288 36.9267C24.9713 36.0521 24.1455 34.8762 23.5513 33.3989C22.9572 31.9098 22.6602 30.3379 22.6602 28.6833C22.6602 25.8351 23.486 23.5364 25.1376 21.7873C26.5516 20.2863 28.013 19.1577 29.5221 18.4013C31.0311 17.6331 32.5757 17.249 34.1561 17.249C35.0829 17.249 35.974 17.3672 36.8295 17.6035C37.685 17.8281 38.5821 18.1945 39.5208 18.7027ZM38.4692 21.6809C38.6118 22.1773 38.6831 22.7209 38.6831 23.3118C38.6831 24.1746 38.5108 25.0492 38.1662 25.9355C37.8217 26.8101 37.3226 27.531 36.6691 28.0983C36.0156 28.6538 35.267 28.9315 34.4234 28.9315C33.5679 28.9315 32.6649 28.6301 31.7143 28.0274C30.6924 27.3774 30.1815 26.5028 30.1815 25.4037C30.1815 24.8128 30.336 24.2278 30.6449 23.6487C30.9657 23.0577 31.3875 22.5318 31.9104 22.0709C32.4332 21.5982 33.057 21.2141 33.7818 20.9186C34.5066 20.6232 35.267 20.4754 36.0631 20.4754C35.2789 20.7827 34.7026 21.2023 34.3343 21.7341C33.9778 22.2659 33.7996 22.8037 33.7996 23.3473C33.7996 24.0564 33.9778 24.5528 34.3343 24.8364C34.5838 25.0019 34.869 25.0846 35.1898 25.0846C35.8314 25.0846 36.4849 24.7419 37.1503 24.0564C37.8276 23.3709 38.2672 22.5791 38.4692 21.6809Z" fill="#007580"/>
<path d="M41.9697 8.27881L51.0238 4.50282L52.3427 24.9782L59.7927 20.9186L67.5279 22.0709L57.4401 29.7647L66.9397 36.8912L67.3675 44L53.3586 33.9839L53.8042 42.6882L45.3204 42.8477L43.7163 12.0548L41.0963 12.6398L41.9697 8.27881ZM65.0327 22.9396L59.9353 22.2127L51.4693 26.2901L50.1504 5.81467L42.843 8.86382L42.2548 11.328L44.7501 10.0161L46.3541 41.9613L52.6278 41.8195L52.3427 31.9452L66.3516 42.2627C66.3516 41.66 66.2981 40.6613 66.1912 39.2667C66.0842 37.8721 65.9951 37.1749 65.9238 37.1749C65.9001 37.1749 65.2941 36.7553 64.1059 35.9162C62.9296 35.0771 61.8483 34.303 60.8621 33.5939C59.8878 32.8848 58.8659 32.1461 57.7965 31.3779C56.7271 30.6097 55.9786 30.072 55.5508 29.7647L65.0327 22.9396Z" fill="#007580"/>
<path d="M81.7578 28.0983L86.0531 33.257C85.7086 34.2498 84.8887 35.1598 83.5936 35.9871C82.3103 36.8144 80.7775 37.4644 78.9952 37.9371C77.2248 38.4217 75.4544 38.664 73.684 38.664C72.1155 38.664 70.7135 38.4572 69.4777 38.0435C68.2539 37.6299 67.3093 37.0035 66.6439 36.1644C65.4913 34.7225 64.915 32.8789 64.915 30.6334C64.915 28.8606 65.2359 27.1174 65.8775 25.4037C66.531 23.6782 67.2201 22.4727 67.9449 21.7873C68.8123 20.9718 69.751 20.2922 70.761 19.7486C71.7828 19.2049 72.8403 18.7972 73.9335 18.5254C75.0266 18.2536 76.1495 18.1176 77.302 18.1176C78.8111 18.1176 80.2428 18.3599 81.5974 18.8445C82.9638 19.3172 84.158 20.0086 85.1798 20.9186L75.395 32.5302C76.2624 32.5302 77.0822 32.3529 77.8546 31.9984C78.6388 31.632 79.3576 31.1179 80.0111 30.4561C80.6646 29.7824 81.2469 28.9965 81.7578 28.0983ZM81.8647 29.0733C81.8647 29.6642 81.437 30.3261 80.5815 31.0588C79.7379 31.7916 78.7101 32.4179 77.4981 32.938C76.2861 33.458 75.1989 33.718 74.2365 33.718C73.8681 33.718 73.6008 33.6943 73.4344 33.6471L84.0213 21.025C82.9876 20.4222 81.8469 19.9436 80.5993 19.589C79.3636 19.2345 78.1041 19.0572 76.8208 19.0572C75.3237 19.0572 73.8978 19.3231 72.5433 19.855C71.1887 20.3868 69.953 21.2495 68.8361 22.4432C68.3014 23.0105 67.8202 23.7314 67.3924 24.606C66.9766 25.4805 66.6439 26.4496 66.3943 27.5133C66.1448 28.577 66.0201 29.6288 66.0201 30.6688C66.0201 32.938 66.626 34.6575 67.838 35.8276C69.3233 37.2339 71.3551 37.9371 73.9335 37.9371C75.4781 37.9371 77.0525 37.7008 78.6566 37.228C80.2725 36.7435 81.6687 36.123 82.845 35.3666C84.0213 34.6103 84.7758 33.8598 85.1085 33.1152L81.8647 29.0733ZM71.2422 32.0161C70.8976 31.8152 70.6006 31.3188 70.3511 30.527C70.1134 29.7352 69.9946 28.8783 69.9946 27.9565C69.9946 26.2192 70.4105 24.8896 71.2422 23.9678C71.5987 23.5659 72.074 23.2409 72.6681 22.9927C73.2622 22.7446 73.9157 22.6205 74.6286 22.6205C75.8287 22.6205 76.9634 22.9927 78.0328 23.7373L71.2422 32.0161ZM76.8208 23.9678C76.2386 23.6723 75.6445 23.5246 75.0385 23.5246C74.3969 23.5246 73.7731 23.6546 73.1671 23.9146C72.573 24.1746 72.1512 24.4819 71.9017 24.8364C71.165 25.7819 70.7966 26.8219 70.7966 27.9565C70.7966 28.3701 70.8382 28.766 70.9214 29.1442C71.0046 29.5224 71.1471 30.0424 71.3491 30.7043L76.8208 23.9678Z" fill="#007580"/>
<path d="M97.2353 20.5463C96.3085 21.1609 95.8451 22.0473 95.8451 23.2055C95.8451 24.0091 96.0233 24.5528 96.3798 24.8364C96.6293 25.0019 96.9145 25.0846 97.2353 25.0846V28.8606C96.9264 28.9079 96.6828 28.9315 96.5046 28.9315C95.5778 28.9315 94.6629 28.6301 93.7598 28.0274C92.738 27.3537 92.227 26.4792 92.227 25.4037C92.227 24.8837 92.3518 24.3578 92.6013 23.8259C92.8627 23.2823 93.2192 22.7859 93.6707 22.3368C94.1222 21.8877 94.6629 21.4977 95.2926 21.1668C95.9342 20.8359 96.5818 20.6291 97.2353 20.5463ZM97.0749 3.3328L104.525 0L104.971 24.0032C105.066 24.6178 105.113 25.3151 105.113 26.0951C105.113 26.7806 105.089 27.2887 105.042 27.6197L105.256 38.4867L97.2353 38.9122V37.8308C95.9283 38.3626 94.6094 38.6285 93.2786 38.6285C92.2567 38.6285 91.2943 38.4749 90.3913 38.1676C89.5001 37.8603 88.7278 37.4467 88.0743 36.9267C87.0168 36.0521 86.191 34.8762 85.5969 33.3989C85.0028 31.9098 84.7057 30.3379 84.7057 28.6833C84.7057 25.8351 85.5315 23.5364 87.1831 21.7873C88.609 20.2981 90.0764 19.1695 91.5854 18.4013C93.1063 17.6331 94.6569 17.249 96.2372 17.249C96.6769 17.249 97.0096 17.2608 97.2353 17.2844L97.0749 3.3328ZM97.9661 3.77599L98.2512 18.3658C98.0611 18.3422 97.77 18.3304 97.3779 18.3304C96.6412 18.3304 95.8986 18.419 95.15 18.5963C94.4015 18.7736 93.6232 19.0454 92.8152 19.4118C92.0191 19.7781 91.2349 20.2391 90.4626 20.7945C89.6902 21.35 88.9892 21.9705 88.3594 22.6559C87.7772 23.2823 87.3079 23.95 86.9514 24.6591C86.595 25.3564 86.3276 26.0892 86.1494 26.8574C85.9712 27.6138 85.882 28.376 85.882 29.1442C85.882 30.6452 86.1732 32.0398 86.7554 33.328C87.3495 34.6044 88.1515 35.5853 89.1615 36.2707C89.9576 36.8262 91.0983 37.1039 92.5835 37.1039C94.5203 37.1039 96.4095 36.6667 98.2512 35.7921V38.0435L104.097 37.618L103.652 1.31185L97.9661 3.77599Z" fill="#007580"/>
<path d="M121.91 28.0983L126.205 33.257C125.86 34.2498 125.04 35.1598 123.745 35.9871C122.462 36.8144 120.929 37.4644 119.147 37.9371C117.377 38.4217 115.606 38.664 113.836 38.664C112.267 38.664 110.865 38.4572 109.629 38.0435C108.406 37.6299 107.461 37.0035 106.796 36.1644C105.643 34.7225 105.067 32.8789 105.067 30.6334C105.067 28.8606 105.388 27.1174 106.029 25.4037C106.683 23.6782 107.372 22.4727 108.097 21.7873C108.964 20.9718 109.903 20.2922 110.913 19.7486C111.935 19.2049 112.992 18.7972 114.085 18.5254C115.178 18.2536 116.301 18.1176 117.454 18.1176C118.963 18.1176 120.395 18.3599 121.749 18.8445C123.116 19.3172 124.31 20.0086 125.332 20.9186L115.547 32.5302C116.414 32.5302 117.234 32.3529 118.006 31.9984C118.79 31.632 119.509 31.1179 120.163 30.4561C120.816 29.7824 121.399 28.9965 121.91 28.0983ZM122.016 29.0733C122.016 29.6642 121.589 30.3261 120.733 31.0588C119.89 31.7916 118.862 32.4179 117.65 32.938C116.438 33.458 115.351 33.718 114.388 33.718C114.02 33.718 113.753 33.6943 113.586 33.6471L124.173 21.025C123.139 20.4222 121.999 19.9436 120.751 19.589C119.515 19.2345 118.256 19.0572 116.973 19.0572C115.475 19.0572 114.05 19.3231 112.695 19.855C111.34 20.3868 110.105 21.2495 108.988 22.4432C108.453 23.0105 107.972 23.7314 107.544 24.606C107.128 25.4805 106.796 26.4496 106.546 27.5133C106.297 28.577 106.172 29.6288 106.172 30.6688C106.172 32.938 106.778 34.6575 107.99 35.8276C109.475 37.2339 111.507 37.9371 114.085 37.9371C115.63 37.9371 117.204 37.7008 118.808 37.228C120.424 36.7435 121.82 36.123 122.997 35.3666C124.173 34.6103 124.928 33.8598 125.26 33.1152L122.016 29.0733ZM111.394 32.0161C111.049 31.8152 110.752 31.3188 110.503 30.527C110.265 29.7352 110.146 28.8783 110.146 27.9565C110.146 26.2192 110.562 24.8896 111.394 23.9678C111.75 23.5659 112.226 23.2409 112.82 22.9927C113.414 22.7446 114.067 22.6205 114.78 22.6205C115.98 22.6205 117.115 22.9927 118.185 23.7373L111.394 32.0161ZM116.973 23.9678C116.39 23.6723 115.796 23.5246 115.19 23.5246C114.549 23.5246 113.925 23.6546 113.319 23.9146C112.725 24.1746 112.303 24.4819 112.053 24.8364C111.317 25.7819 110.948 26.8219 110.948 27.9565C110.948 28.3701 110.99 28.766 111.073 29.1442C111.156 29.5224 111.299 30.0424 111.501 30.7043L116.973 23.9678Z" fill="#007580"/>
<path d="M138.332 34.5334L134.018 40.0822L124.822 40.3658L133.733 28.6479L123.663 15.689L133.43 16.1144L138.332 22.5496L143.215 16.1144L153 15.689L142.93 28.6479L151.842 40.3658L142.627 40.0822L138.332 34.5334ZM141.29 28.6833L150.523 16.9831L144.249 17.1426L138.332 24.8364L132.414 17.1426L126.141 16.9831L135.373 28.6833L127.157 39.3554L133.003 39.2135L138.332 32.4593L143.661 39.2135L149.489 39.3554L141.29 28.6833Z" fill="#007580"/>
</svg>
